<svg width="168" height="44" viewBox="0 0 168 44" fill="none" xmlns="http://www.w3.org/2000/svg">
<rect y="5.21732" width="37.9559" height="37.9559" rx="18.9779" fill="#FF0000"/>
<path d="M10.2795 17.7815C10.2795 17.7815 7.08878 19.3648 6.09169 20.1565V20.7502C6.68994 22.7294 9.20261 28.1128 14.4672 33.8129C19.7319 39.5129 24.6375 36.1879 27.0306 31.9647C29.4236 27.7416 38.3974 8.80826 40.7904 3.53134C43.1834 -1.74558 35.2067 2.73966 34.2096 3.53134C33.6113 5.31261 22.2445 30.2503 20.4498 30.2503C18.655 30.2503 13.6297 18.2565 12.6725 17.7815C11.476 17.1877 10.2795 17.7815 10.2795 17.7815Z" fill="white" stroke="#FF0000" stroke-width="2"/>
<path d="M160.962 21.6457H157.51V18.9566H160.962V14.511H164.548V18.9566H168V21.6457H164.548V33.2501H160.962V21.6457Z" fill="black"/>
<path d="M140.745 28.8651C141.714 29.4466 142.78 29.8746 143.943 30.1491C145.106 30.4237 146.297 30.561 147.517 30.561C148.34 30.561 149.027 30.5044 149.576 30.3914C150.125 30.2783 150.565 30.133 150.896 29.9553C151.227 29.7777 151.461 29.5758 151.599 29.3497C151.736 29.1235 151.805 28.8934 151.805 28.6592C151.805 28.32 151.655 28.0293 151.357 27.7871C151.066 27.5448 150.581 27.4237 149.903 27.4237C149.588 27.4237 149.249 27.4439 148.885 27.4842C148.522 27.5246 148.138 27.569 147.735 27.6175C147.339 27.6579 146.923 27.6982 146.487 27.7386C146.059 27.779 145.623 27.7992 145.179 27.7992C144.21 27.7992 143.382 27.6942 142.696 27.4842C142.017 27.2743 141.464 26.9876 141.036 26.6242C140.608 26.2608 140.297 25.8328 140.103 25.3402C139.91 24.8395 139.813 24.3025 139.813 23.7291C139.813 23.0024 139.982 22.3321 140.321 21.7184C140.661 21.1046 141.145 20.5757 141.775 20.1315C142.405 19.6793 143.164 19.328 144.052 19.0777C144.949 18.8274 145.946 18.7022 147.044 18.7022C147.618 18.7022 148.215 18.7385 148.837 18.8112C149.467 18.8758 150.085 18.9646 150.69 19.0777C151.296 19.1907 151.877 19.324 152.435 19.4774C152.992 19.6228 153.484 19.7803 153.912 19.9498L152.786 22.7359C151.873 22.3967 150.961 22.1302 150.048 21.9364C149.144 21.7345 148.211 21.6336 147.25 21.6336C146.58 21.6336 146.011 21.6861 145.542 21.791C145.082 21.8879 144.706 22.0212 144.416 22.1908C144.125 22.3523 143.911 22.5421 143.774 22.7601C143.644 22.9701 143.58 23.1921 143.58 23.4263C143.58 23.5959 143.612 23.7493 143.677 23.8866C143.749 24.0239 143.862 24.145 144.016 24.25C144.177 24.3469 144.383 24.4236 144.634 24.4802C144.892 24.5286 145.207 24.5528 145.579 24.5528C145.918 24.5528 146.277 24.5327 146.657 24.4923C147.036 24.4519 147.432 24.4115 147.844 24.3711C148.256 24.3227 148.679 24.2783 149.116 24.2379C149.56 24.1975 150.012 24.1773 150.472 24.1773C151.328 24.1773 152.075 24.2783 152.713 24.4802C153.359 24.682 153.892 24.9647 154.312 25.3281C154.732 25.6915 155.047 26.1195 155.257 26.6121C155.467 27.1047 155.572 27.6417 155.572 28.2231C155.572 28.9742 155.398 29.6727 155.051 30.3187C154.704 30.9647 154.187 31.526 153.501 32.0024C152.814 32.4708 151.958 32.8383 150.933 33.1047C149.915 33.3712 148.736 33.5045 147.396 33.5045C146.572 33.5045 145.776 33.452 145.009 33.347C144.242 33.2501 143.511 33.1169 142.817 32.9473C142.122 32.7696 141.468 32.5637 140.854 32.3295C140.249 32.0953 139.696 31.845 139.195 31.5785L140.745 28.8651Z" fill="black"/>
<path d="M133.78 17.0063C133.425 17.0063 133.102 16.9579 132.811 16.861C132.529 16.756 132.286 16.6187 132.084 16.4491C131.883 16.2715 131.725 16.0696 131.612 15.8435C131.507 15.6093 131.455 15.363 131.455 15.1046C131.455 14.8381 131.507 14.5918 131.612 14.3657C131.725 14.1315 131.883 13.9296 132.084 13.76C132.286 13.5904 132.529 13.4572 132.811 13.3603C133.102 13.2553 133.425 13.2028 133.78 13.2028C134.144 13.2028 134.467 13.2553 134.749 13.3603C135.04 13.4572 135.286 13.5904 135.488 13.76C135.69 13.9296 135.844 14.1315 135.949 14.3657C136.062 14.5918 136.118 14.8381 136.118 15.1046C136.118 15.363 136.062 15.6093 135.949 15.8435C135.844 16.0696 135.69 16.2715 135.488 16.4491C135.286 16.6187 135.04 16.756 134.749 16.861C134.467 16.9579 134.144 17.0063 133.78 17.0063ZM131.988 18.9566H135.573V33.2501H131.988V18.9566Z" fill="black"/>
<path d="M123.702 13.1543H127.288V33.2501H123.702V13.1543Z" fill="black"/>
<path d="M98.1312 23.7291C98.1312 22.2998 98.3937 20.9916 98.9186 19.8045C99.4435 18.6174 100.178 17.5999 101.123 16.752C102.076 15.896 103.215 15.2338 104.539 14.7654C105.872 14.297 107.345 14.0628 108.96 14.0628C110.567 14.0628 112.037 14.297 113.37 14.7654C114.702 15.2338 115.841 15.896 116.786 16.752C117.738 17.5999 118.477 18.6174 119.002 19.8045C119.527 20.9916 119.79 22.2998 119.79 23.7291C119.79 25.1666 119.527 26.4869 119.002 27.6902C118.477 28.8853 117.738 29.9149 116.786 30.779C115.841 31.6431 114.702 32.3174 113.37 32.8019C112.037 33.2784 110.567 33.5166 108.96 33.5166C107.345 33.5166 105.872 33.2784 104.539 32.8019C103.215 32.3174 102.076 31.6431 101.123 30.779C100.178 29.9149 99.4435 28.8853 98.9186 27.6902C98.3937 26.4869 98.1312 25.1666 98.1312 23.7291ZM101.971 23.7291C101.971 24.7063 102.145 25.5865 102.492 26.3698C102.847 27.1531 103.336 27.8234 103.958 28.3806C104.588 28.9297 105.326 29.3537 106.174 29.6525C107.03 29.9513 107.959 30.1007 108.96 30.1007C109.962 30.1007 110.886 29.9513 111.734 29.6525C112.59 29.3537 113.329 28.9297 113.951 28.3806C114.573 27.8234 115.061 27.1531 115.417 26.3698C115.772 25.5865 115.95 24.7063 115.95 23.7291C115.95 22.752 115.772 21.8758 115.417 21.1006C115.061 20.3253 114.573 19.6712 113.951 19.1383C113.329 18.5972 112.59 18.1854 111.734 17.9027C110.886 17.6201 109.962 17.4788 108.96 17.4788C107.959 17.4788 107.03 17.6201 106.174 17.9027C105.326 18.1854 104.588 18.5972 103.958 19.1383C103.336 19.6712 102.847 20.3253 102.492 21.1006C102.145 21.8758 101.971 22.752 101.971 23.7291Z" fill="#FF0000"/>
<path d="M76.5456 14.3172H83.4864C85.5133 14.3172 87.2738 14.5353 88.7678 14.9713C90.2617 15.4074 91.4973 16.0332 92.4744 16.8489C93.4596 17.6564 94.1904 18.6416 94.6669 19.8045C95.1514 20.9593 95.3937 22.2594 95.3937 23.7049C95.3937 25.0777 95.1554 26.3496 94.679 27.5206C94.2025 28.6834 93.4757 29.6929 92.4986 30.5489C91.5215 31.3968 90.2859 32.063 88.792 32.5475C87.298 33.024 85.5376 33.2622 83.5106 33.2622L76.5456 33.2501V14.3172ZM84.4312 29.9311C85.578 29.9311 86.5833 29.7857 87.4474 29.495C88.3115 29.1962 89.0302 28.7763 89.6036 28.2352C90.185 27.6942 90.6211 27.0401 90.9118 26.2729C91.2025 25.5057 91.3479 24.6497 91.3479 23.7049C91.3479 22.7762 91.2025 21.9404 90.9118 21.1975C90.6211 20.4465 90.185 19.8126 89.6036 19.2957C89.0302 18.7708 88.3115 18.3671 87.4474 18.0844C86.5833 17.8018 85.578 17.6604 84.4312 17.6604H80.3854V29.9311H84.4312Z" fill="#FF0000"/>
<path d="M54.6934 26.1033C54.6934 25.0777 54.8993 24.1168 55.3112 23.2204C55.7311 22.324 56.3246 21.5407 57.0918 20.8704C57.867 20.2002 58.7998 19.6712 59.8899 19.2836C60.9882 18.896 62.2197 18.7022 63.5845 18.7022C64.9492 18.7022 66.1767 18.896 67.2669 19.2836C68.3651 19.6712 69.2978 20.2002 70.065 20.8704C70.8402 21.5407 71.4338 22.324 71.8456 23.2204C72.2656 24.1168 72.4755 25.0777 72.4755 26.1033C72.4755 27.1289 72.2656 28.0899 71.8456 28.9863C71.4338 29.8826 70.8402 30.666 70.065 31.3362C69.2978 32.0065 68.3651 32.5354 67.2669 32.923C66.1767 33.3107 64.9492 33.5045 63.5845 33.5045C62.2197 33.5045 60.9882 33.3107 59.8899 32.923C58.7998 32.5354 57.867 32.0065 57.0918 31.3362C56.3246 30.666 55.7311 29.8826 55.3112 28.9863C54.8993 28.0899 54.6934 27.1289 54.6934 26.1033ZM58.4606 26.1033C58.4606 26.6767 58.5736 27.2218 58.7998 27.7386C59.0339 28.2474 59.3691 28.6996 59.8051 29.0953C60.2493 29.4829 60.7863 29.7938 61.4162 30.028C62.0542 30.2541 62.7769 30.3672 63.5845 30.3672C64.392 30.3672 65.1107 30.2541 65.7406 30.028C66.3786 29.7938 66.9156 29.4829 67.3517 29.0953C67.7958 28.6996 68.1309 28.2474 68.357 27.7386C68.5912 27.2218 68.7083 26.6767 68.7083 26.1033C68.7083 25.53 68.5912 24.9849 68.357 24.4681C68.1309 23.9512 67.7958 23.499 67.3517 23.1114C66.9156 22.7157 66.3786 22.4048 65.7406 22.1787C65.1107 21.9445 64.392 21.8274 63.5845 21.8274C62.7769 21.8274 62.0542 21.9445 61.4162 22.1787C60.7863 22.4048 60.2493 22.7157 59.8051 23.1114C59.3691 23.499 59.0339 23.9512 58.7998 24.4681C58.5736 24.9849 58.4606 25.53 58.4606 26.1033Z" fill="black"/>
<path d="M45.3299 21.6457H41.8777V18.9566H45.3299V14.511H48.9154V18.9566H52.3677V21.6457H48.9154V33.2501H45.3299V21.6457Z" fill="black"/>
</svg>
